<?xml version="1.0" standalone="no"?><!DOCTYPE svg PUBLIC "-//W3C//DTD SVG 1.1//EN" "http://www.w3.org/Graphics/SVG/1.1/DTD/svg11.dtd"><svg t="1646812373301" class="icon" viewBox="0 0 1024 1024" version="1.1" xmlns="http://www.w3.org/2000/svg" p-id="3497" xmlns:xlink="http://www.w3.org/1999/xlink" width="128" height="128"><defs><style type="text/css"></style></defs><path d="M812.736 768h-6.4V524.8a294.4 294.4 0 0 0-294.4-294.4 294.4 294.4 0 0 0-294.4 294.4V768h-6.4a73.6 73.6 0 1 0 0 147.2h601.6a73.6 73.6 0 1 0 0-147.2z m-66.133333-107.776a38.4 38.4 0 1 1-76.8 0v-23.466667a38.4 38.4 0 1 1 76.8 0z m-38.4-81.066667a38.4 38.4 0 0 1-38.4-38.4 162.133333 162.133333 0 0 0-1.685334-23.232 158.634667 158.634667 0 0 0-156.181333-134.656 38.4 38.4 0 1 1 0-76.8 234.389333 234.389333 0 0 1 234.666667 234.666667 38.4 38.4 0 0 1-38.4 38.442667z" fill="#FAAD14" p-id="3498"></path><path d="M511.936 198.4a38.4 38.4 0 0 1-38.4-38.4V83.2a38.4 38.4 0 1 1 76.8 0v76.8a38.4 38.4 0 0 1-38.4 38.4z" fill="#FAAD14" p-id="3499"></path><path d="M334.357333 238.336a38.250667 38.250667 0 0 1-27.157333-11.242667L252.906667 172.8A38.4 38.4 0 0 1 307.2 118.485333L361.514667 172.8a38.4 38.4 0 0 1-27.157334 65.536z" fill="#FAAD14" p-id="3500"></path><path d="M689.642667 238.336A38.4 38.4 0 0 1 662.506667 172.8L716.8 118.485333A38.4 38.4 0 0 1 771.114667 172.8L716.8 227.093333a38.208 38.208 0 0 1-27.157333 11.242667z" fill="#FAAD14" p-id="3501"></path><path d="M816.384 348.949333a38.4 38.4 0 0 1-16.170667-73.258666l69.674667-32.298667a38.4 38.4 0 1 1 32.298667 69.696l-69.674667 32.298667a38.4 38.4 0 0 1-16.128 3.562666z" fill="#FAAD14" p-id="3502"></path><path d="M207.616 348.949333a38.528 38.528 0 0 1-16.128-3.562666L121.813333 313.088a38.4 38.4 0 0 1 32.298667-69.696l69.674667 32.298667a38.4 38.4 0 0 1-16.170667 73.258666z" fill="#FAAD14" p-id="3503"></path></svg>